HIERARCHY
ROOT reference
{
  OFFSET 0 0 0
  CHANNELS 6 Xposition Yposition Zposition Zrotation Xrotation Yrotation
  JOINT Hips
  {
    OFFSET 19.8941 91.4584 12.6699
    CHANNELS 3 Zrotation Xrotation Yrotation
    JOINT RightUpLeg
    {
      OFFSET -9.21136 -1.54315 -0.00338228
      CHANNELS 3 Zrotation Xrotation Yrotation
      JOINT RightLeg
      {
        OFFSET 0.100199 -41.8913 0.117885
        CHANNELS 3 Zrotation Xrotation Yrotation
        JOINT RightFoot
        {
          OFFSET -0.0312538 -39.9042 0.200326
          CHANNELS 3 Zrotation Xrotation Yrotation
          End Site
          {
            OFFSET 0 -7.69 17.5
          }
        }
      }
    }
    JOINT LeftUpLeg
    {
      OFFSET 9.2904 -1.6473 0.00344049
      CHANNELS 3 Zrotation Xrotation Yrotation
      JOINT LeftLeg
      {
        OFFSET 0.15381 -41.8817 -0.0541105
        CHANNELS 3 Zrotation Xrotation Yrotation
        JOINT LeftFoot
        {
          OFFSET 0.872932 -43.9846 -0.139608
          CHANNELS 3 Zrotation Xrotation Yrotation
          End Site
          {
            OFFSET 0 -7.69 17.5
          }
        }
      }
    }
    JOINT Spine
    {
      OFFSET 0.0768477 14.3139 0.027738
      CHANNELS 3 Zrotation Xrotation Yrotation
      JOINT Spine1
      {
        OFFSET -0.0133682 9.71866 0.00713354
        CHANNELS 3 Zrotation Xrotation Yrotation
        JOINT Spine2
        {
          OFFSET -0.0175262 10.1212 -0.00524987
          CHANNELS 3 Zrotation Xrotation Yrotation
          JOINT Spine3
          {
            OFFSET -0.00348171 9.71796 0.0104149
            CHANNELS 3 Zrotation Xrotation Yrotation
            JOINT Neck
            {
              OFFSET -0.0845439 10.3822 0.044921
              CHANNELS 3 Zrotation Xrotation Yrotation
              JOINT Head
              {
                OFFSET -0.0310878 9.44025 0.0694291
                CHANNELS 3 Zrotation Xrotation Yrotation
                End Site
                {
                  OFFSET 0 15.95 0
                }
              }
            }
            JOINT RightShoulder
            {
              OFFSET -3.20882 6.90619 -0.0326675
              CHANNELS 3 Zrotation Xrotation Yrotation
              JOINT RightArm
              {
                OFFSET -12.8514 -0.0142271 -0.0483735
                CHANNELS 3 Zrotation Xrotation Yrotation
                JOINT RightForeArm
                {
                  OFFSET -26.4475 -0.0994884 -0.035967
                  CHANNELS 3 Zrotation Xrotation Yrotation
                  JOINT RightHand
                  {
                    OFFSET -25.9226 -0.102631 -0.136889
                    CHANNELS 3 Zrotation Xrotation Yrotation
                    JOINT RightHandThumb1
                    {
                      OFFSET -2.48905 0.190105 3.12053
                      CHANNELS 3 Zrotation Xrotation Yrotation
                      JOINT RightHandThumb2
                      {
                        OFFSET -3.68274 0 0
                        CHANNELS 3 Zrotation Xrotation Yrotation
                        JOINT RightHandThumb3
                        {
                          OFFSET -2.55832 0 0
                          CHANNELS 3 Zrotation Xrotation Yrotation
                          End Site
                          {
                            OFFSET -2.194 0 0
                          }
                        }
                      }
                    }
                    JOINT RightInHandIndex
                    {
                      OFFSET -3.22368 0.508421 1.97842
                      CHANNELS 3 Zrotation Xrotation Yrotation
                      JOINT RightHandIndex1
                      {
                        OFFSET -5.21684 -0.091368 0.999158
                        CHANNELS 3 Zrotation Xrotation Yrotation
                        JOINT RightHandIndex2
                        {
                          OFFSET -3.61937 0 0
                          CHANNELS 3 Zrotation Xrotation Yrotation
                          JOINT RightHandIndex3
                          {
                            OFFSET -2.0521 0 0
                            CHANNELS 3 Zrotation Xrotation Yrotation
                            End Site
                            {
                              OFFSET -1.805 0 0
                            }
                          }
                        }
                      }
                    }
                    JOINT RightInHandMiddle
                    {
                      OFFSET -3.38211 0.517263 0.756737
                      CHANNELS 3 Zrotation Xrotation Yrotation
                      JOINT RightHandMiddle1
                      {
                        OFFSET -5.17411 -0.084 0.313895
                        CHANNELS 3 Zrotation Xrotation Yrotation
                        JOINT RightHandMiddle2
                        {
                          OFFSET -3.94947 0 0
                          CHANNELS 3 Zrotation Xrotation Yrotation
                          JOINT RightHandMiddle3
                          {
                            OFFSET -2.47579 0 0
                            CHANNELS 3 Zrotation Xrotation Yrotation
                            End Site
                            {
                              OFFSET -1.975 0 0
                            }
                          }
                        }
                      }
                    }
                    JOINT RightInHandRing
                    {
                      OFFSET -3.36516 0.537895 -0.128947
                      CHANNELS 3 Zrotation Xrotation Yrotation
                      JOINT RightHandRing1
                      {
                        OFFSET -4.63474 -0.022105 -0.478947
                        CHANNELS 3 Zrotation Xrotation Yrotation
                        JOINT RightHandRing2
                        {
                          OFFSET -3.44238 0 0
                          CHANNELS 3 Zrotation Xrotation Yrotation
                          JOINT RightHandRing3
                          {
                            OFFSET -2.3881 0 0
                            CHANNELS 3 Zrotation Xrotation Yrotation
                            End Site
                            {
                              OFFSET -1.857 0 0
                            }
                          }
                        }
                      }
                    }
                    JOINT RightInHandPinky
                    {
                      OFFSET -3.16105 0.469368 -1.20179
                      CHANNELS 3 Zrotation Xrotation Yrotation
                      JOINT RightHandPinky1
                      {
                        OFFSET -4.14105 -0.022105 -1.09053
                        CHANNELS 3 Zrotation Xrotation Yrotation
                        JOINT RightHandPinky2
                        {
                          OFFSET -2.75653 0 0
                          CHANNELS 3 Zrotation Xrotation Yrotation
                          JOINT RightHandPinky3
                          {
                            OFFSET -1.74189 0 0
                            CHANNELS 3 Zrotation Xrotation Yrotation
                            End Site
                            {
                              OFFSET -1.645 0 0
                            }
                          }
                        }
                      }
                    }
                  }
                }
              }
            }
            JOINT LeftShoulder
            {
              OFFSET 3.19355 6.9059 0.0487761
              CHANNELS 3 Zrotation Xrotation Yrotation
              JOINT LeftArm
              {
                OFFSET 12.7349 -0.00433124 -0.0458964
                CHANNELS 3 Zrotation Xrotation Yrotation
                JOINT LeftForeArm
                {
                  OFFSET 26.4064 -0.194468 0.00909971
                  CHANNELS 3 Zrotation Xrotation Yrotation
                  JOINT LeftHand
                  {
                    OFFSET 25.9027 0.0515579 -0.250056
                    CHANNELS 3 Zrotation Xrotation Yrotation
                    JOINT LeftHandThumb1
                    {
                      OFFSET 2.48905 0.190105 3.12053
                      CHANNELS 3 Zrotation Xrotation Yrotation
                      JOINT LeftHandThumb2
                      {
                        OFFSET 3.68274 0 0
                        CHANNELS 3 Zrotation Xrotation Yrotation
                        JOINT LeftHandThumb3
                        {
                          OFFSET 2.55832 0 0
                          CHANNELS 3 Zrotation Xrotation Yrotation
                          End Site
                          {
                            OFFSET 2.194 0 0
                          }
                        }
                      }
                    }
                    JOINT LeftInHandIndex
                    {
                      OFFSET 3.22368 0.508421 1.97842
                      CHANNELS 3 Zrotation Xrotation Yrotation
                      JOINT LeftHandIndex1
                      {
                        OFFSET 5.21684 -0.091368 0.999158
                        CHANNELS 3 Zrotation Xrotation Yrotation
                        JOINT LeftHandIndex2
                        {
                          OFFSET 3.61937 0 0
                          CHANNELS 3 Zrotation Xrotation Yrotation
                          JOINT LeftHandIndex3
                          {
                            OFFSET 2.0521 0 0
                            CHANNELS 3 Zrotation Xrotation Yrotation
                            End Site
                            {
                              OFFSET 1.805 0 0
                            }
                          }
                        }
                      }
                    }
                    JOINT LeftInHandMiddle
                    {
                      OFFSET 3.38211 0.517263 0.756737
                      CHANNELS 3 Zrotation Xrotation Yrotation
                      JOINT LeftHandMiddle1
                      {
                        OFFSET 5.17411 -0.084 0.313895
                        CHANNELS 3 Zrotation Xrotation Yrotation
                        JOINT LeftHandMiddle2
                        {
                          OFFSET 3.94947 0 0
                          CHANNELS 3 Zrotation Xrotation Yrotation
                          JOINT LeftHandMiddle3
                          {
                            OFFSET 2.47579 0 0
                            CHANNELS 3 Zrotation Xrotation Yrotation
                            End Site
                            {
                              OFFSET 1.975 0 0
                            }
                          }
                        }
                      }
                    }
                    JOINT LeftInHandRing
                    {
                      OFFSET 3.36516 0.537895 -0.128947
                      CHANNELS 3 Zrotation Xrotation Yrotation
                      JOINT LeftHandRing1
                      {
                        OFFSET 4.63474 -0.022105 -0.478947
                        CHANNELS 3 Zrotation Xrotation Yrotation
                        JOINT LeftHandRing2
                        {
                          OFFSET 3.44238 0 0
                          CHANNELS 3 Zrotation Xrotation Yrotation
                          JOINT LeftHandRing3
                          {
                            OFFSET 2.3881 0 0
                            CHANNELS 3 Zrotation Xrotation Yrotation
                            End Site
                            {
                              OFFSET 1.857 0 0
                            }
                          }
                        }
                      }
                    }
                    JOINT LeftInHandPinky
                    {
                      OFFSET 3.16105 0.469368 -1.20179
                      CHANNELS 3 Zrotation Xrotation Yrotation
                      JOINT LeftHandPinky1
                      {
                        OFFSET 4.14105 -0.022105 -1.09053
                        CHANNELS 3 Zrotation Xrotation Yrotation
                        JOINT LeftHandPinky2
                        {
                          OFFSET 2.75653 0 0
                          CHANNELS 3 Zrotation Xrotation Yrotation
                          JOINT LeftHandPinky3
                          {
                            OFFSET 1.74189 0 0
                            CHANNELS 3 Zrotation Xrotation Yrotation
                            End Site
                            {
                              OFFSET 1.645 0 0
                            }
                          }
                        }
                      }
                    }
                  }
                }
              }
            }
          }
        }
      }
    }
  }
}
MOTION
Frames: 2
Frame Time: 0.00416667
1.500000000000000000e+03 0.000000000000000000e+00 0.000000000000000000e+00 0.000000000000000000e+00 0.000000000000000000e+00 0.000000000000000000e+00 2.927489999999999881e+01 -1.910870000000000246e+01 -1.169969999999999857e+02 -9.369460000000000122e+00 -5.245430000000001058e+01 -1.056349999999999945e+01 -4.390139999999999709e+00 1.020660000000000167e+01 2.545490000000000208e+01 9.271770000000000067e+00 4.032540000000000902e+00 4.297479999999999478e+01 1.755150000000000077e+01 -3.837969999999999970e+01 2.037199999999999633e+01 -4.242040000000000255e-01 3.665900000000000158e+00 -9.130069999999998132e+00 -1.354299999999999926e+01 3.276920000000000055e+00 -1.370870000000000033e+01 3.743700000000000028e+00 1.895629999999999882e+01 -1.013449999999999740e+01 6.244570000000000398e-01 4.670969999999998734e+00 -2.519870000000000054e+00 1.077280000000000237e+00 7.358270000000000088e+00 -4.271579999999999266e+00 -1.577120000000000077e+00 -6.458600000000001007e-01 8.571279999999998900e-01 -1.610910000000000064e+00 -6.328960000000001251e-01 8.907169999999999810e-01 -2.944669999999999987e+01 -1.141070000000000029e+01 1.600359999999999872e+01 -5.652420000000000222e+00 -8.452519999999999811e+00 9.618999999999999773e+00 6.162190000000000367e+01 -1.705750000000000099e+00 3.780420000000000869e+01 5.829449999999999932e+01 -7.581860000000000355e+01 1.296449999999999818e+02 -2.181239999999999846e-01 -2.334329999999999927e+01 1.736929999999999907e+01 2.818400000000000105e+01 1.072940000000000005e+01 1.915919999999999845e+01 0.000000000000000000e+00 0.000000000000000000e+00 -1.000000000000000000e+01 -2.949209999999999658e-15 1.590279999999999485e-15 -1.000000000000000000e+01 -1.590280000000000274e-15 -3.578119999999999853e-15 6.361109999999998952e-15 1.998179999999999978e+01 8.718970000000000331e-01 2.396399999999999864e+00 2.400000000000000000e+01 -7.951389999999996071e-15 -9.541660000000006823e-15 2.000000000000000000e+01 6.361109999999998952e-15 -3.180550000000002348e-15 -1.590280000000000274e-15 -3.578119999999999853e-15 6.361109999999998952e-15 2.000000000000000000e+01 -1.192710000000000403e-15 3.180549999999994460e-15 2.400000000000000000e+01 -4.770830000000003411e-15 -1.749310000000000967e-14 2.000000000000000000e+01 0.000000000000000000e+00 -6.361109999999998952e-15 -1.590280000000000274e-15 -3.578119999999999853e-15 6.361109999999998952e-15 1.997479999999999833e+01 -1.025649999999999951e+00 -2.819380000000000219e+00 2.400000000000000000e+01 -7.951389999999994493e-15 -2.226390000000000586e-14 2.000000000000000000e+01 -3.180549999999999193e-15 -7.951389999999992915e-15 -1.590280000000000274e-15 -3.578119999999999853e-15 6.361109999999998952e-15 1.978150000000000119e+01 -3.009479999999999933e+00 -8.305149999999999366e+00 2.400000000000000000e+01 -6.361109999999999741e-15 -3.578119999999999853e-14 2.000000000000000000e+01 -1.590280000000000274e-15 -1.033679999999999868e-14 -2.729120000000000346e+01 -1.994519999999999627e+01 -2.156079999999999686e+01 1.881389999999999318e+01 4.560350000000000392e+01 -1.347239999999999895e+02 2.574239999999999995e+01 1.662359999999999971e+01 -1.753750000000000142e+01 -1.070919999999999916e+01 7.028319999999999901e+00 -1.920300000000000296e+01 -2.818400000000000105e+01 1.072940000000000005e+01 -1.915919999999999845e+01 -4.931750000000007612e-16 -6.361109999999999741e-15 1.000000000000000000e+01 -4.776790000000000061e-15 -9.541660000000000512e-15 1.000000000000000000e+01 9.541660000000000512e-15 3.180549999999999193e-15 3.180549999999999982e-15 -1.998179999999999978e+01 8.718970000000000331e-01 -2.396399999999999864e+00 -2.400000000000000000e+01 -6.361109999999999741e-15 -9.939230000000002750e-15 -2.000000000000000000e+01 -3.180549999999999982e-15 1.590279999999999485e-15 9.541660000000000512e-15 3.180549999999999193e-15 3.180549999999999982e-15 -2.000000000000000000e+01 6.361109999999998952e-15 -1.590280000000000116e-14 -2.400000000000000000e+01 1.272219999999999993e-14 -1.033679999999999552e-14 -2.000000000000000000e+01 3.180549999999999193e-15 -3.180550000000000771e-15 9.541660000000000512e-15 3.180549999999999193e-15 3.180549999999999982e-15 -1.997479999999999833e+01 -1.025649999999999951e+00 2.819380000000000219e+00 -2.400000000000000000e+01 3.180549999999999193e-15 -7.951389999999999226e-15 -2.000000000000000000e+01 -6.361109999999999741e-15 -7.951389999999999226e-16 9.541660000000000512e-15 3.180549999999999193e-15 3.180549999999999982e-15 -1.978150000000000119e+01 -3.009479999999999933e+00 8.305149999999999366e+00 -2.400000000000000000e+01 -3.180549999999999193e-15 -5.565969999999999999e-15 -2.000000000000000000e+01 0.000000000000000000e+00 5.963539999999999081e-15
1.500000000000000000e+03 0.000000000000000000e+00 0.000000000000000000e+00 0.000000000000000000e+00 0.000000000000000000e+00 0.000000000000000000e+00 2.926450000000000173e+01 -1.910550000000000281e+01 -1.169740000000000180e+02 -9.420329999999999870e+00 -5.244330000000000069e+01 -1.062360000000000149e+01 -4.382380000000000386e+00 1.021080000000000076e+01 2.546049999999999613e+01 9.272070000000001144e+00 4.031649999999999068e+00 4.297659999999999059e+01 1.752990000000000137e+01 -3.838600000000000989e+01 2.033579999999999544e+01 -4.269359999999999822e-01 3.674279999999999546e+00 -9.127289999999998571e+00 -1.354470000000000063e+01 3.286799999999999944e+00 -1.370829999999999771e+01 3.754579999999999362e+00 1.895340000000000202e+01 -1.011810000000000009e+01 6.275880000000001457e-01 4.670639999999999681e+00 -2.514279999999999848e+00 1.082280000000000131e+00 7.358370000000000744e+00 -4.261750000000001037e+00 -1.576820000000000332e+00 -6.448190000000000310e-01 8.571649999999999547e-01 -1.610670000000000046e+00 -6.318570000000000020e-01 8.907220000000000137e-01 -2.942709999999999582e+01 -1.137480000000000047e+01 1.598850000000000016e+01 -5.655179999999999652e+00 -8.447780000000001621e+00 9.618150000000001754e+00 6.157419999999999760e+01 -1.579720000000000235e+00 3.796609999999999729e+01 5.823179999999999268e+01 -7.598319999999999652e+01 1.295809999999999604e+02 -2.047769999999999868e-01 -2.330689999999999884e+01 1.737360000000000326e+01 2.818400000000000105e+01 1.072940000000000005e+01 1.915919999999999845e+01 4.931750000000023389e-16 -6.361109999999999741e-15 -1.000000000000000000e+01 8.286820000000000025e-15 -7.951389999999996071e-15 -1.000000000000000000e+01 -2.385420000000000017e-15 -1.987850000000000145e-15 6.361109999999999741e-15 1.998179999999999978e+01 8.718970000000000331e-01 2.396399999999999864e+00 2.400000000000000000e+01 9.541660000000002090e-15 2.226390000000000270e-14 2.000000000000000000e+01 -3.180550000000001560e-15 3.180550000000000771e-15 -2.385420000000000017e-15 -1.987850000000000145e-15 6.361109999999999741e-15 2.000000000000000000e+01 2.782989999999998310e-15 -3.180549999999994460e-15 2.400000000000000000e+01 3.180550000000000771e-15 1.749310000000000651e-14 2.000000000000000000e+01 0.000000000000000000e+00 -3.180550000000000771e-15 -2.385420000000000017e-15 -1.987850000000000145e-15 6.361109999999999741e-15 1.997479999999999833e+01 -1.025649999999999951e+00 -2.819380000000000219e+00 2.400000000000000000e+01 7.951389999999999226e-15 3.180549999999998878e-14 2.000000000000000000e+01 3.180549999999999982e-15 1.590280000000002641e-15 -2.385420000000000017e-15 -1.987850000000000145e-15 6.361109999999999741e-15 1.978150000000000119e+01 -3.009479999999999933e+00 -8.305149999999999366e+00 2.400000000000000000e+01 3.975689999999998147e-15 4.055209999999999565e-14 2.000000000000000000e+01 -7.951389999999998240e-16 1.590279999999999485e-15 -2.729259999999999664e+01 -1.990960000000000107e+01 -2.155999999999999872e+01 1.874840000000000018e+01 4.556850000000000733e+01 -1.345860000000000127e+02 2.570019999999999882e+01 1.657809999999999917e+01 -1.750519999999999854e+01 -1.072160000000000046e+01 7.061300000000000132e+00 -1.921979999999999933e+01 -2.818400000000000105e+01 1.072940000000000005e+01 -1.915919999999999845e+01 5.608180000000006654e-16 -3.180550000000000771e-15 1.000000000000000000e+01 0.000000000000000000e+00 0.000000000000000000e+00 1.000000000000000000e+01 -3.180549999999999982e-15 3.180549999999999193e-15 0.000000000000000000e+00 -1.998179999999999978e+01 8.718970000000000331e-01 -2.396399999999999864e+00 -2.400000000000000000e+01 0.000000000000000000e+00 8.348960000000001464e-15 -2.000000000000000000e+01 -6.361110000000000530e-15 9.541660000000000512e-15 -3.180549999999999982e-15 3.180549999999999193e-15 0.000000000000000000e+00 -2.000000000000000000e+01 0.000000000000000000e+00 9.541659999999997356e-15 -2.400000000000000000e+01 3.180550000000000771e-15 1.192709999999999772e-14 -2.000000000000000000e+01 -6.361109999999998163e-15 7.951389999999999226e-15 -3.180549999999999982e-15 3.180549999999999193e-15 0.000000000000000000e+00 -1.997479999999999833e+01 -1.025649999999999951e+00 2.819380000000000219e+00 -2.400000000000000000e+01 -6.361109999999998952e-15 1.431249999999999897e-14 -2.000000000000000000e+01 0.000000000000000000e+00 7.951390000000002382e-15 -3.180549999999999982e-15 3.180549999999999193e-15 0.000000000000000000e+00 -1.978150000000000119e+01 -3.009479999999999933e+00 8.305149999999999366e+00 -2.400000000000000000e+01 -9.541660000000000512e-15 1.669790000000000022e-14 -2.000000000000000000e+01 6.361110000000000530e-15 8.746530000000000547e-15
